# xmcd CD database file
#
# Track frame offsets:
#	150
#	52497
#	104711
#	171028
#
# Disc length: 3738 seconds
#
# Revision: 0
# Processed by: cddbd v1.5.2PL0 Copyright (c) Steve Scherf et al.
# Submitted via: CDex 1.51
#
DISCID=390e9804
DTITLE=Agnya - Memories of Church Melodies - Sacred Meditation Music
DYEAR=2007
DGENRE=New Age
TTITLE0=Good Of The Universe
TTITLE1=All Embracing Love Mantra
TTITLE2=Hope For Merciful Grace
TTITLE3=Journey To Peace And Light
EXTD=YEAR: 2007
EXTT0=
EXTT1=
EXTT2=
EXTT3=
PLAYORDER=
